<?xml version="1.0" ?><!DOCTYPE svg  PUBLIC '-//W3C//DTD SVG 1.1//EN'  'http://www.w3.org/Graphics/SVG/1.1/DTD/svg11.dtd'><svg enable-background="new 0 0 91 91" height="91px" id="Layer_1" version="1.1" viewBox="0 0 91 91" width="91px" xml:space="preserve" xmlns="http://www.w3.org/2000/svg" xmlns:xlink="http://www.w3.org/1999/xlink"><g><path d="M77.952,8.443c-4.885,0-7.068,8.105-7.99,13.682c-0.215,0.006-0.439,0.018-0.676,0.031   c-0.252,0.016-0.551,0.023-0.893,0.023c-5.385,0-19.521-1.607-21.904-2.174c-0.395-0.094-0.773-0.203-1.135-0.307   c-0.855-0.246-1.662-0.48-2.484-0.48c-2.506,0-3.5,2.182-4.049,3.881c-1.074,3.32-2.289,7.082-0.842,9.605   c0.457,0.795,1.129,1.389,2.004,1.773C39.421,45,37.604,56.881,35.226,58.955c-2.219,1.936-5.299,2.918-9.15,2.918   c-2.074,0-3.881-0.295-4.947-0.518l-0.199-0.494l-0.85-0.035c-0.504-0.021-1-0.035-1.488-0.035c-3.768,0-8.846,0.803-9.445,7.742   c-0.41,4.742,2.68,9.141,6.801,9.789c2.154,1.307,7.176,3.002,18.855,4.008c2.701,0.234,5.67,0.42,8.828,0.557   c0.365,0.248,0.787,0.398,1.248,0.447l2.227,0.242c2.975,0.326,5.543,0.609,7.549,0.609c2.066,0,3.402-0.299,4.33-0.965   c2.355-1.689,5.293-10.783,5.512-13.445c0.037-0.408-0.012-0.807-0.141-1.189c2.141-7.949,4.945-23.934,6.012-30.195   c1.344-0.07,2.355-0.334,2.939-1.094c1.289-1.682,1.836-10.41,1.842-10.492c0.039-0.832,0.023-1.555-0.141-2.191   c1.977-2.455,4.938-6.232,5.867-7.984l0.176-0.328c0.951-1.768,2.252-4.188,1.146-6.068C81.507,9.063,80.14,8.477,77.952,8.443z    M61.103,65.982c-0.854-0.246-1.826-0.375-2.859-0.375c-2.873,0-5.93,0.963-8.605,2.711c-4.203,2.746-6.883,7.346-7.291,10.705   C28.921,78.361,22.64,76.93,19.81,75.938c2.619-3.533,2.768-7.578,2.359-10.529c0.549,0.08,1.102,0.145,1.646,0.191   c0.768,0.066,1.533,0.1,2.279,0.1c4.764,0,8.676-1.305,11.627-3.879c4.166-3.633,5.57-18.779,6.021-26.547l0.082,0.012   c5.969,0.965,17.076,2.762,20.363,2.9c0.656,0.029,1.309,0.064,1.941,0.098c0.131,0.008,0.264,0.016,0.395,0.023   C65.497,44.289,63.062,58.059,61.103,65.982z M77.698,13.066c-0.098,0.605-1.385,3.326-3.984,7.996   c1.912-4.49,3.375-7.729,3.729-8.225c0.014-0.021,0.053-0.076,0.139-0.076l0.092,0.031C77.692,12.813,77.722,12.9,77.698,13.066z"/></g></svg>