<svg width="38" height="33" viewBox="0 0 38 33" fill="none" xmlns="http://www.w3.org/2000/svg">
<path d="M0.183123 13.6984C0.125324 13.6202 0 13.6608 0 13.758V16.9286C0 24.5179 19 33 19 33C19 33 38 23.4018 38 16.9286V13.2988C38 13.2028 37.8774 13.1615 37.8187 13.2374C33.8189 18.4059 27.6481 22.0093 22.0661 25.1624C20.1812 26.2271 17.8914 26.2846 15.9534 25.2901C10.3273 22.4029 4.03499 18.906 0.183123 13.6984Z" fill="#D50842"/>
<path d="M21.0824 23.4211C19.7781 24.1578 18.2009 24.1954 16.8666 23.5107C11.9031 20.9635 0 14.2111 0 8.03392C0 3.59688 4.78496 0 10.6875 0C14.0449 0 17.0407 1.16373 19 2.98386C20.9593 1.16373 23.9551 0 27.3125 0C33.215 0 38 3.59688 38 8.03392C38 13.3208 26.0148 20.6349 21.0824 23.4211Z" fill="#D50842"/>
</svg>
