<svg width="24" height="24" viewBox="0 0 24 24" fill="currentColor" xmlns="http://www.w3.org/2000/svg">
<path fill-rule="evenodd" clip-rule="evenodd" d="M7 2C5.89543 2 5 2.89543 5 4V19.8098C5 21.5186 7.00445 22.4404 8.30175 21.3281L10.6982 19.2735C11.4473 18.6314 12.5527 18.6314 13.3018 19.2735L15.6982 21.3281C16.9956 22.4404 19 21.5186 19 19.8098V4C19 2.89543 18.1046 2 17 2H7ZM12.8712 6.54558C12.4886 5.86693 11.5114 5.86693 11.1288 6.54558L10.6377 7.41695C10.495 7.67012 10.2492 7.8487 9.96434 7.90618L8.98385 8.10401C8.22021 8.25809 7.91822 9.18753 8.44545 9.76104L9.1224 10.4974C9.31909 10.7114 9.41297 11.0003 9.3796 11.289L9.26476 12.2826C9.17533 13.0565 9.96596 13.6309 10.6743 13.3067L11.5838 12.8905C11.8481 12.7695 12.1519 12.7695 12.4162 12.8905L13.3257 13.3067C14.034 13.6309 14.8247 13.0565 14.7352 12.2826L14.6204 11.289C14.587 11.0003 14.6809 10.7114 14.8776 10.4974L15.5546 9.76104C16.0818 9.18753 15.7798 8.25809 15.0162 8.10401L14.0357 7.90618C13.7508 7.8487 13.505 7.67012 13.3623 7.41695L12.8712 6.54558Z" fill="white"/>
</svg>
