<svg width="26" height="26" viewBox="0 0 26 26" fill="none" xmlns="http://www.w3.org/2000/svg">
<path d="M23.0339 13.1307L16.5241 9.45114C15.6151 8.93987 14.4015 9.24716 13.8706 10.1401L10.0982 16.4869C9.56263 17.3871 9.88039 18.5524 10.8043 19.0732L17.3135 22.7526C18.2213 23.2649 19.4368 22.9557 19.9666 22.064L23.7399 15.7177C24.2752 14.817 23.9573 13.6528 23.0338 13.1308L23.0339 13.1307ZM14.5774 12.6453C14.3849 11.9422 14.8146 11.2205 15.5355 11.0336C16.2408 10.8486 16.9995 11.2747 17.1893 11.9675C17.3809 12.6717 16.9521 13.3933 16.2312 13.5793C15.525 13.7618 14.7673 13.3411 14.5774 12.6453ZM15.6138 16.441C15.4213 15.7385 15.851 15.0166 16.5717 14.8295C17.2783 14.6482 18.0348 15.0679 18.2251 15.764C18.4169 16.4675 17.9879 17.1894 17.2672 17.3755C16.5608 17.5571 15.8035 17.1378 15.6138 16.441ZM18.3032 21.171C17.5973 21.3534 16.8402 20.9319 16.65 20.2371C16.4239 19.4114 17.0917 18.5806 17.9564 18.5806C18.5542 18.5806 19.1001 18.9702 19.2613 19.5597C19.4531 20.2618 19.0237 20.9839 18.3032 21.171ZM10.8607 11.6911C11.1435 11.2155 11.6842 10.9784 12.2102 11.0477L13.0314 9.66576C13.268 9.26753 13.599 8.93983 13.987 8.69849L13.0883 5.4061C12.8133 4.40004 11.7446 3.79668 10.7125 4.06292L3.44201 5.94984C2.41013 6.21808 1.79044 7.2601 2.06515 8.26652L4.00029 15.3551C4.2748 16.3617 5.34398 16.9651 6.3756 16.698L9.30259 15.9387L10.9591 13.1525C10.6361 12.7412 10.5782 12.1663 10.8606 11.6912L10.8607 11.6911ZM4.38105 9.55203C3.73561 9.18715 3.5155 8.38045 3.88974 7.75091C4.26378 7.12199 5.09061 6.90745 5.73604 7.2717C6.38169 7.63679 6.6018 8.44272 6.22735 9.07221C5.85351 9.7019 5.02669 9.91651 4.38105 9.55203ZM7.69301 14.4406C7.31875 15.0701 6.49193 15.2844 5.84628 14.9196C5.20084 14.5551 4.98074 13.7486 5.35456 13.1195C5.72902 12.49 6.55564 12.2754 7.20129 12.6401C7.84715 13.0048 8.06725 13.8113 7.69301 14.4406ZM9.71304 11.0421C9.33879 11.6716 8.51196 11.8862 7.86674 11.5213C7.2213 11.1568 7.00162 10.3503 7.37523 9.72123C7.74927 9.09154 8.5763 8.87715 9.22195 9.24162C9.86702 9.60671 10.0873 10.4126 9.71304 11.0421ZM9.88718 8.12244C9.24154 7.75857 9.02164 6.95122 9.39567 6.32235C9.76992 5.69245 10.5968 5.47806 11.242 5.84274C11.8876 6.20762 12.1075 7.01432 11.7333 7.64345C11.3597 8.27314 10.5328 8.48731 9.88718 8.12244Z" fill="#2A2A2A"/>
</svg>
