<svg width="16" height="16" viewBox="0 0 16 16" fill="none" xmlns="http://www.w3.org/2000/svg">
<path d="M7.12885 1.54558C7.51136 0.866931 8.48864 0.86693 8.87115 1.54557L10.3145 4.10634C10.4572 4.35952 10.703 4.53809 10.9879 4.59557L13.8693 5.17696C14.633 5.33104 14.9349 6.26048 14.4077 6.83399L12.4183 8.99802C12.2216 9.21197 12.1277 9.5009 12.1611 9.78961L12.4986 12.7097C12.588 13.4836 11.7974 14.058 11.089 13.7338L8.41616 12.5105C8.1519 12.3895 7.8481 12.3895 7.58384 12.5105L4.91096 13.7338C4.2026 14.058 3.41197 13.4836 3.50141 12.7097L3.83889 9.78961C3.87226 9.50091 3.77838 9.21197 3.58169 8.99802L1.59228 6.83399C1.06505 6.26048 1.36704 5.33104 2.13068 5.17696L5.01213 4.59557C5.29701 4.53809 5.5428 4.35952 5.6855 4.10634L7.12885 1.54558Z" fill="#D50842"/>
</svg>
