<svg width="26" height="40" viewBox="0 0 26 40" fill="none" xmlns="http://www.w3.org/2000/svg">
<g opacity="1">
<path fill-rule="evenodd" clip-rule="evenodd" d="M15 14C15 15.1046 14.1046 16 13 16C11.8954 16 11 15.1046 11 14C11 12.8954 11.8954 12 13 12C14.1046 12 15 12.8954 15 14ZM15 20C15 21.1046 14.1046 22 13 22C11.8954 22 11 21.1046 11 20C11 18.8954 11.8954 18 13 18C14.1046 18 15 18.8954 15 20ZM13 28C14.1046 28 15 27.1046 15 26C15 24.8954 14.1046 24 13 24C11.8954 24 11 24.8954 11 26C11 27.1046 11.8954 28 13 28Z" fill="#2A2A2A"/>
</g>
</svg>
